# xmcd
#
# Track frame offsets:
#	150
#	14037
#	27203
#	43567
#	60111
#	74069
#	86553
#	100244
#	113050
#	134554
#
# Disc length: 1987 seconds
# Revision: 0
# Processed by: cddbd v1.5.2PL0 Copyright (c) Steve Scherf et al.
# Submitted via: dBpowerAMP V12.0
#
DISCID=8507c10a
DTITLE=Lee Greenwood - God Bless The U.S.A.: The Best Of Lee Greenwood
DYEAR=1984
DGENRE=Country*
TTITLE0=Dixie Road
TTITLE1=Hearts Aren't Made To Break {They're Made To Love}
TTITLE2=Somebody's Gonna Love You
TTITLE3=Ring On Her Finger, Time On Her Hands
TTITLE4=I.O.U.
TTITLE5=Touch And Go Crazy
TTITLE6=Amazing Grace
TTITLE7=Oh Holy Night
TTITLE8=How Great Thou Art
TTITLE9=God Bless The U.S.A.
EXTD=
EXTT0=
EXTT1=
EXTT2=
EXTT3=
EXTT4=
EXTT5=
EXTT6=
EXTT7=
EXTT8=
EXTT9=
PLAYORDER=
